<?xml version="1.0"?>
<!DOCTYPE svg PUBLIC '-//W3C//DTD SVG 1.0//EN'
          'http://www.w3.org/TR/2001/REC-SVG-20010904/DTD/svg10.dtd'>
<svg xmlns:xlink="http://www.w3.org/1999/xlink" style="fill-opacity:1; color-rendering:auto; color-interpolation:auto; text-rendering:auto; stroke:black; stroke-linecap:square; stroke-miterlimit:10; shape-rendering:auto; stroke-opacity:1; fill:black; stroke-dasharray:none; font-weight:normal; stroke-width:1; font-family:'Dialog'; font-style:normal; stroke-linejoin:miter; font-size:12px; stroke-dashoffset:0; image-rendering:auto;" width="500" height="500" xmlns="http://www.w3.org/2000/svg"
><!--Generated by the Batik Graphics2D SVG Generator-->
<defs id="genericDefs"/>
<g>
	<g style="fill:white; stroke:white;">
		<rect x="0" width="500" height="500" y="0" style="stroke:none;"/>
	</g>
	<g style="stroke-linecap:round; fill:rgb(211,211,211); stroke:rgb(211,211,211);">
		<path id="A011" style="stroke:none;" d="M10 3.5 L21 0 L22.5 3.5 L25.5 7 L28.5 7 L31.5 3.5 L33 0 L44 3.5 L42.5 14.5 L44.5 18.5 L47 20.5 L49.5 22.5 L47.5 37.5 L48.5 45.5 L49.5 56.5 L4.5 56.5 L5.5 45.5 L6.5 37.5 L4.5 22.5 L7 20.5 L9.5 18.5 L11.5 14.5"/>
		<path id="A012" style="stroke:none;" d="M10 3.5 L21 0 L22.5 1 L25.5 2 L28.5 2 L31.5 1 L33 0 L44 3.5 L42.5 14.5 L44.5 18.5 L47 20.5 L49.5 22.5 L47.5 37.5 L48.5 45.5 L49.5 56.5 L4.5 56.5 L5.5 45.5 L6.5 37.5 L4.5 22.5 L7 20.5 L9.5 18.5 L11.5 14.5"/>
		<path id="A021" style="stroke:none;" d="M10 3.5 L22 0 L23.5 4 L26.5 8 L30.5 8 L33.5 4 L35 0 L47 3.5 L45 18 L47.5 22 L49 24 L52 26 L50 41 L51 51.5 L52 66.5 L5 66.5 L6 51.5 L7 41 L5 26 L8 24 L9.5 22 L12 18"/>
		<path id="A022" style="stroke:none;" d="M10 3.5 L22 0 L23.5 1 L26.5 2.5 L30.5 2.5 L33.5 1 L35 0 L47 3.5 L45 18 L47.5 22 L49 24 L52 26 L50 41 L51 51.5 L52 66.5 L5 66.5 L6 51.5 L7 41 L5 26 L8 24 L9.5 22 L12 18"/>
		<path id="A031" style="stroke:none;" d="M10 3.5 L23 0 L24.5 5 L27.5 9 L32.5 9 L35.5 5 L37 0 L50 3.5 L47.5 21 L49.5 26 L52 28 L54.5 30 L52.5 48 L53.5 66 L54.5 76.5 L5.5 76.5 L6.5 66 L7.5 48 L5.5 30 L8 28 L10.5 26 L12.5 21"/>
		<path id="A032" style="stroke:none;" d="M10 3.5 L23 0 L24.5 2 L27.5 4 L32.5 4 L35.5 2 L37 0 L50 3.5 L47.5 21 L49.5 26 L52 28 L54.5 30 L52.5 48 L53.5 66 L54.5 76.5 L5.5 76.5 L6.5 66 L7.5 48 L5.5 30 L8 28 L10.5 26 L12.5 21"/>
		
		<path id="B011" style="stroke:none;" d="M10 3.5 L21 0 L22.5 3.5 L25.5 7 L32 7 L32 56.5 L4.5 56.5 L5.5 45.5 L6.5 37.5 L4.5 22.5 L7 20.5 L9.5 18.5 L11.5 14.5"/>
		<path id="B012" style="stroke:none;" d="M22 7 L28.5 7 L31.5 3.5 L33 0 L44 3.5 L42.5 14.5 L44.5 18.5 L47 20.5 L49.5 22.5 L47.5 37.5 L48.5 45.5 L49.5 56.5 L22 56.5"/>
		<path id="B013" style="stroke:none;" d="M10 3.5 L21 0 L22.5 1 L25.5 2 L28.5 2 L31.5 1 L33 0 L44 3.5 L42.5 14.5 L44.5 18.5 L47 20.5 L49.5 22.5 L47.5 37.5 L48.5 45.5 L49.5 56.5 L4.5 56.5 L5.5 45.5 L6.5 37.5 L4.5 22.5 L7 20.5 L9.5 18.5 L11.5 14.5"/>
		<path id="B021" style="stroke:none;" d="M10 3.5 L22 0 L23.5 4 L26.5 8 L33.5 8 L33.5 66.5 L5 66.5 L6 51.5 L7 41 L5 26 L8 24 L9.5 22 L12 14.5"/>
		<path id="B022" style="stroke:none;" d="M23.5 8 L30.5 8 L33.5 4 L35 0 L47 3.5 L45 18 L47.5 22 L49 24 L52 26 L50 41 L51 51.5 L52 66.5 L23.5 66.5"/>
		<path id="B023" style="stroke:none;" d="M10 3.5 L22 0 L23.5 1 L26.5 2.5 L30.5 2.5 L33.5 1 L35 0 L47 3.5 L45 18 L47.5 22 L49 24 L52 26 L50 41 L51 51.5 L52 66.5 L5 66.5 L6 51.5 L7 41 L5 26 L8 24 L9.5 22 L12 18"/>
		<path id="B031" style="stroke:none;" d="M10 3.5 L23 0 L24.5 5 L27.5 9 L35 9 L35 76.5 L5.5 76.5 L6.5 66 L7.5 48 L5.5 30 L8 28 L10.5 26 L12.5 21"/>
		<path id="B032" style="stroke:none;" d="M25 9 L32.5 9 L35.5 5 L37 0 L50 3.5 L47.5 21 L49.5 26 L52 28 L54.5 30 L52.5 48 L53.5 66 L54.5 76.5 L25 76.5"/>
		<path id="B033" style="stroke:none;" d="M10 3.5 L23 0 L24.5 2 L27.5 4 L32.5 4 L35.5 2 L37 0 L50 3.5 L47.5 21 L49.5 26 L52 28 L54.5 30 L52.5 48 L53.5 66 L54.5 76.5 L5.5 76.5 L6.5 66 L7.5 48 L5.5 30 L8 28 L10.5 26 L12.5 21"/>
		
		<path id="C011" style="stroke:none;" d="M10 3.5 L21 0 L22.5 3.5 L25.5 7 L28.5 7 L31.5 3.5 L33 0 L44 3.5 L42.5 14.5 L44.5 18.5 L47 20.5 L49.5 22.5 L47.5 37.5 L48.5 45.5 L49.5 56.5 L4.5 56.5 L5.5 45.5 L6.5 37.5 L4.5 22.5 L7 20.5 L9.5 18.5 L11.5 14.5"/>
		<path id="C012" style="stroke:none;" d="M10 3.5 L21 0 L22.5 1 L25.5 2 L32 2 L32 56.5 L4.5 56.5 L5.5 45.5 L6.5 37.5 L4.5 22.5 L7 20.5 L9.5 18.5 L11.5 14.5"/>
		<path id="C013" style="stroke:none;" d="M22 2 L28.5 2 L31.5 1 L33 0 L44 3.5 L42.5 14.5 L44.5 18.5 L47 20.5 L49.5 22.5 L47.5 37.5 L48.5 45.5 L49.5 56.5 L22 56.5"/>
		<path id="C021" style="stroke:none;" d="M10 3.5 L22 0 L23.5 4 L26.5 8 L30.5 8 L33.5 4 L35 0 L47 3.5 L45 18 L47.5 22 L49 24 L52 26 L50 41 L51 51.5 L52 66.5 L5 66.5 L6 51.5 L7 41 L5 26 L8 24 L9.5 22 L12 18"/>
		<path id="C022" style="stroke:none;" d="M10 3.5 L22 0 L23.5 1 L26.5 2.5 L33.5 2.5 L33.5 66.5 L5 66.5 L6 51.5 L7 41 L5 26 L8 24 L9.5 22 L12 18"/>
		<path id="C023" style="stroke:none;" d="M22.5 2.5 L30.5 2.5 L33.5 1 L35 0 L47 3.5 L45 18 L47.5 22 L49 24 L52 26 L50 41 L51 51.5 L52 66.5 L22.5 66.5"/>
		<path id="C031" style="stroke:none;" d="M10 3.5 L23 0 L24.5 5 L27.5 9 L32.5 9 L35.5 5 L37 0 L50 3.5 L47.5 21 L49.5 26 L52 28 L54.5 30 L52.5 48 L53.5 66 L54.5 76.5 L5.5 76.5 L6.5 66 L7.5 48 L5.5 30 L8 28 L10.5 26 L12.5 21"/>
		<path id="C032" style="stroke:none;" d="M10 3.5 L23 0 L24.5 2 L27.5 4 L35 4 L35 76.5 L5.5 76.5 L6.5 66 L7.5 48 L5.5 30 L8 28 L10.5 26 L12.5 21"/>
		<path id="C033" style="stroke:none;" d="M25 4 L32.5 4 L35.5 2 L37 0 L50 3.5 L47.5 21 L49.5 26 L52 28 L54.5 30 L52.5 48 L53.5 66 L54.5 76.5 L25 76.5"/>
		
		<path id="D011" style="stroke:none;" d="M5 0 L14.5 0.9 L16 13 L17.5 1.1 L25.5 1.5 L33.5 1.1 L35 13 L36.5 0.9 L46 0 L48.5 17 L50.5 53.5 L25.5 56.5 L0.5 53.5 L2.5 17"/>
		<path id="D012" style="stroke:none;" d="M5 0 L14.5 0.9 L16 13 L17.5 1.1 L25.5 1.5 L33.5 1.1 L35 13 L36.5 0.9 L46 0 L48.5 17 L50.5 53.5 L25.5 56.5 L0.5 53.5 L2.5 17"/>
		<path id="D013" style="stroke:none;" d="M0 0 L10 0 L10 66 L0 66"/>
		<path id="D021" style="stroke:none;" d="M5 0 L15.5 0.9 L17 13 L18.5 1.1 L27 1.5 L35.5 1.1 L37 13 L38.5 0.9 L49 0 L52 18 L53 63.5 L27 66.5 L1 63.5 L2 18"/>
		<path id="D022" style="stroke:none;" d="M5 0 L15.5 0.9 L17 13 L18.5 1.1 L27 1.5 L35.5 1.1 L37 13 L38.5 0.9 L49 0 L52 18 L53 63.5 L27 66.5 L1 63.5 L2 18"/>
		<path id="D023" style="stroke:none;" d="M0 0 L10 0 L10 72 L0 72"/>
		<path id="D031" style="stroke:none;" d="M5 0 L16.5 0.9 L18 13 L19.5 1.1 L28.5 1.5 L37.5 1.1 L39 13 L40.5 0.9 L52 0 L56 20 L57 68.5 L28.5 70 L0 68.5 L1 20"/>
		<path id="D032" style="stroke:none;" d="M5 0 L16.5 0.9 L18 13 L19.5 1.1 L28.5 1.5 L37.5 1.1 L39 13 L40.5 0.9 L52 0 L56 20 L57 68.5 L28.5 70 L0 68.5 L1 20"/>
		<path id="D033" style="stroke:none;" d="M0 0 L10 0 L10 78 L0 78"/>
		
		<path id="E011" style="stroke:none;" d="M5 0 L14.5 0.9 L16 13 L17.5 1.1 L25.5 1.5 L33.5 1.1 L35 13 L36.5 0.9 L46 0 L48.5 17 L50.5 88.5 L25.5 91.5 L0.5 88.5 L2.5 17"/>
		<path id="E012" style="stroke:none;" d="M5 0 L14.5 0.9 L16 13 L17.5 1.1 L25.5 1.5 L33.5 1.1 L35 13 L36.5 0.9 L46 0 L48.5 17 L50.5 88.5 L25.5 91.5 L0.5 88.5 L2.5 17"/>
		<path id="E013" style="stroke:none;" d="M0 0 L10 0 L10 66 L0 66"/>
		<path id="E021" style="stroke:none;" d="M5 0 L15.5 0.9 L17 13 L18.5 1.1 L27 1.5 L35.5 1.1 L37 13 L38.5 0.9 L49 0 L52 18 L53 94.5 L27 96 L1 94.5 L2 18"/>
		<path id="E022" style="stroke:none;" d="M5 0 L15.5 0.9 L17 13 L18.5 1.1 L27 1.5 L35.5 1.1 L37 13 L38.5 0.9 L49 0 L52 18 L53 94.5 L27 96 L1 94.5 L2 18"/>
		<path id="E023" style="stroke:none;" d="M0 0 L10 0 L10 72 L0 72"/>
		<path id="E031" style="stroke:none;" d="M5 0 L16.5 0.9 L18 13 L19.5 1.1 L28.5 1.5 L37.5 1.1 L39 13 L40.5 0.9 L52 0 L56 20 L57 100.5 L28.5 102 L0 100.5 L1 20"/>
		<path id="E032" style="stroke:none;" d="M5 0 L16.5 0.9 L18 13 L19.5 1.1 L28.5 1.5 L37.5 1.1 L39 13 L40.5 0.9 L52 0 L56 20 L57 100.5 L28.5 102 L0 100.5 L1 20"/>
		<path id="E033" style="stroke:none;" d="M0 0 L10 0 L10 78 L0 78"/>
		
		<path id="F011" style="stroke:none;" d="M5 0 L14.5 0.9 L16 13 L17.5 1.1 L25.5 1.5 L33.5 1.1 L35 13 L36.5 0.9 L46 0 L48.5 17 L50.5 53.5 L25.5 56.5 L0.5 53.5 L2.5 17"/>
		<path id="F012" style="stroke:none;" d="M5 0 L14.5 0.9 L16 13 L17.5 1.1 L25.5 1.5 L25.5 46.5 L30.5 46.6 L30.5 56.5 L25.5 56.5 L0.5 53.5 L2.5 17"/>
		<path id="F013" style="stroke:none;" d="M20.5 56.5 L20.5 46.6 L25.5 46.5 L25.5 1.5 L33.5 1.1 L35 13 L36.5 0.9 L46 0 L48.5 17 L50.5 53.5 L25.5 56.5"/>
		<path id="F014" style="stroke:none;" d="M0 0 L10 0 L10 66 L0 66"/>
		<path id="F021" style="stroke:none;" d="M5 0 L15.5 0.9 L17 13 L18.5 1.1 L27 1.5 L35.5 1.1 L37 13 L38.5 0.9 L49 0 L52 18 L53 63.5 L27 66.5 L1 63.5 L2 18"/>
		<path id="F022" style="stroke:none;" d="M5 0 L15.5 0.9 L17 13 L18.5 1.1 L27 1.5 L27 56.5 L32 56.5 L32 66.5 L27 66.5 L1 63.5 L2 18"/>
		<path id="F023" style="stroke:none;" d="M22 66.5 L22 56.5 L27 56.5 L27 1.5 L35.5 1.1 L37 13 L38.5 0.9 L49 0 L52 18 L53 63.5 L27 66.5"/>
		<path id="F024" style="stroke:none;" d="M0 0 L10 0 L10 72 L0 72"/>
		<path id="F031" style="stroke:none;" d="M5 0 L16.5 0.9 L18 13 L19.5 1.1 L28.5 1.5 L37.5 1.1 L39 13 L40.5 0.9 L52 0 L56 20 L57 68.5 L28.5 70 L0 68.5 L1 20"/>
		<path id="F032" style="stroke:none;" d="M5 0 L16.5 0.9 L18 13 L19.5 1.1 L28.5 1.5 L28.5 60 L33.5 60 L33.5 70 L28.5 70 L0 68.5 L1 20"/>
		<path id="F033" style="stroke:none;" d="M23.5 70 L23.5 60 L28.5 60 L28.5 1.5 L37.5 1.1 L39 13 L40.5 0.9 L52 0 L56 20 L57 68.5 L28.5 70"/>
		<path id="F034" style="stroke:none;" d="M0 0 L10 0 L10 78 L0 78"/>
		
		<path id="G011" style="stroke:none;" d="M5 0 L14.5 0.9 L16 13 L17.5 1.1 L25.5 1.5 L33.5 1.1 L35 13 L36.5 0.9 L46 0 L48.5 17 L50.5 88.5 L25.5 91.5 L0.5 88.5 L2.5 17"/>
      	<path id="G012" style="stroke:none;" d="M5 0 L14.5 0.9 L16 13 L17.5 1.1 L25.5 1.5 L25.5 71.5 L30.5 71.5 L30.5 91.5 L25.5 91.5 L0.5 88.5 L2.5 17"/>
      	<path id="G013" style="stroke:none;" d="M20.5 91.5 L20.5 71.5 L25.5 71.5 L25.5 1.5 L33.5 1.1 L35 13 L36.5 0.9 L46 0 L48.5 17 L50.5 88.5 L25.5 91.5"/>
      	<path id="G014" style="stroke:none;" d="M0 0 L10 0 L10 66 L0 66"/>
      	<path id="G021" style="stroke:none;" d="M5 0 L15.5 0.9 L17 13 L18.5 1.1 L27 1.5 L35.5 1.1 L37 13 L38.5 0.9 L49 0 L52 18 L53 94.5 L27 96 L1 94.5 L2 18"/>
      	<path id="G022" style="stroke:none;" d="M5 0 L15.5 0.9 L17 13 L18.5 1.1 L27 1.5 L27 76 L32 76 L32 96 L27 96 L1 94.5 L2 18"/>
      	<path id="G023" style="stroke:none;" d="M22 96 L22 76 L27 76 L27 1.5 L35.5 1.1 L37 13 L38.5 0.9 L49 0 L52 18 L53 94.5 L27 96"/>
      	<path id="G024" style="stroke:none;" d="M0 0 L10 0 L10 72 L0 72"/>
      	<path id="G031" style="stroke:none;" d="M5 0 L16.5 0.9 L18 13 L19.5 1.1 L28.5 1.5 L37.5 1.1 L39 13 L40.5 0.9 L52 0 L56 20 L57 100.5 L28.5 102 L0 100.5 L1 20"/>
      	<path id="G032" style="stroke:none;" d="M5 0 L16.5 0.9 L18 13 L19.5 1.1 L28.5 1.5 L28.5 82 L33.5 82 L33.5 102 L28.5 102 L0 100.5 L1 20 L5 0"/>
      	<path id="G033" style="stroke:none;" d="M23.5 102 L23.5 82 L28.5 82 L28.5 1.5 L37.5 1.1 L39 13 L40.5 0.9 L52 0 L56 20 L57 100.5 L28.5 102"/>
      	<path id="G034" style="stroke:none;" d="M0 0 L10 0 L10 78 L0 78"/>
      	
      	<path id="H011" style="stroke:none;" d="M5 0 L14.5 0.9 L16 13 L17.5 1.1 L25.5 1.5 L30.5 0.5 L35.5 1.5 L43.5 1.1 L45 13 L46.5 0.9 L56 0 L58.5 17 L60.5 53.5 L30.5 56.5 L0.5 53.5 L2.5 17"/>
      	<path id="H012" style="stroke:none;" d="M5 0 L14.5 0.9 L16 13 L17.5 1.1 L25.5 1.5 L30.5 0.5 L35.5 1.5 L43.5 1.1 L45 13 L46.5 0.9 L56 0 L58.5 17 L60.5 53.5 L30.5 56.5 L0.5 53.5 L2.5 17"/>
      	<path id="H013" style="stroke:none;" d="M0 0 L10 0 L10 66 L0 66"/>
      	<path id="H021" style="stroke:none;" d="M5 0 L15.5 0.9 L17 13 L18.5 1.1 L27 1.5 L32 0.5 L37 1.5 L45.5 1.1 L47 13 L48.5 0.9 L59 0 L62 18 L63 63.5 L32 66.5 L1 63.5 L2 18"/>
      	<path id="H022" style="stroke:none;" d="M5 0 L15.5 0.9 L17 13 L18.5 1.1 L27 1.5 L32 0.5 L37 1.5 L45.5 1.1 L47 13 L48.5 0.9 L59 0 L62 18 L63 63.5 L32 66.5 L1 63.5 L2 18"/>
      	<path id="H023" style="stroke:none;" d="M0 0 L10 0 L10 72 L0 72"/>
      	<path id="H031" style="stroke:none;" d="M5 0 L15.5 0.9 L17 13 L18.5 1.1 L27 1.5 L32 0.5 L37 1.5 L45.5 1.1 L47 13 L48.5 0.9 L59 0 L62 18 L63 63.5 L32 66.5 L1 63.5 L2 18"/>
      	<path id="H032" style="stroke:none;" d="M5 0 L15.5 0.9 L17 13 L18.5 1.1 L27 1.5 L32 0.5 L37 1.5 L45.5 1.1 L47 13 L48.5 0.9 L59 0 L62 18 L63 63.5 L32 66.5 L1 63.5 L2 18"/>
      	<path id="H033" style="stroke:none;" d="M0 0 L10 0 L10 72 L0 72"/>
      	
      	<path id="I011" style="stroke:none;" d="M5 0 L14.5 0.9 L16 13 L17.5 1.1 L25.5 1.5 L30.5 0.5 L35.5 1.5 L43.5 1.1 L45 13 L46.5 0.9 L56 0 L58.5 17 L60.5 88.5 L30.5 91.5 L0.5 88.5 L2.5 17"/>
      	<path id="I012" style="stroke:none;" d="M5 0 L14.5 0.9 L16 13 L17.5 1.1 L25.5 1.5 L30.5 0.5 L35.5 1.5 L43.5 1.1 L45 13 L46.5 0.9 L56 0 L58.5 17 L60.5 88.5 L30.5 91.5 L0.5 88.5 L2.5 17"/>
      	<path id="I013" style="stroke:none;" d="M0 0 L10 0 L10 66 L0 66"/>
      	<path id="I021" style="stroke:none;" d="M5 0 L15.5 0.9 L17 13 L18.5 1.1 L27 1.5 L32 0.5 L37 1.5 L45.5 1.1 L47 13 L48.5 0.9 L59 0 L62 18 L63 94.5 L32 96 L1 94.5 L2 18"/>
      	<path id="I022" style="stroke:none;" d="M5 0 L15.5 0.9 L17 13 L18.5 1.1 L27 1.5 L32 0.5 L37 1.5 L45.5 1.1 L47 13 L48.5 0.9 L59 0 L62 18 L63 94.5 L32 96 L1 94.5 L2 18"/>
      	<path id="I023" style="stroke:none;" d="M0 0 L10 0 L10 72 L0 72"/>
      	<path id="I031" style="stroke:none;" d="M5 0 L16.5 0.9 L18 13 L19.5 1.1 L28.5 1.5 L33.5 0.5 L38.5 1.5 L47.5 1.1 L49 13 L50.5 0.9 L62 0 L66 20 L67 100.5 L33.5 102 L0 100.5 L1 20"/>
      	<path id="I032" style="stroke:none;" d="M5 0 L16.5 0.9 L18 13 L19.5 1.1 L28.5 1.5 L33.5 0.5 L38.5 1.5 L47.5 1.1 L49 13 L50.5 0.9 L62 0 L66 20 L67 100.5 L33.5 102 L0 100.5 L1 20"/>
      	<path id="I033" style="stroke:none;" d="M0 0 L10 0 L10 78 L0 78"/>
      	
      	<path id="J011" style="stroke:none;" d="M23.5 6 L23.5 19 L24.5 24 L27.5 26 L26 60 L4 60 L2 26 L4 16 L6.5 5 L10 5 L11.5 16 L13 5 L15 5.5 L17 6 L18.5 16 L20 6"/>
      	<path id="J012" style="stroke:none;" d="M31.5 6 L31.5 19 L30.5 24 L27.5 26 L29 60 L51 60 L53 26 L51 16 L48.5 5 L45 5 L43.5 16 L42 5 L40 5.5 L38 6 L36.5 16 L35 6"/>
      	<path id="J013" style="stroke:none;" d="M23.5 6 L26.5 6 L26.5 15 L25.5 19 L23.5 20"/>
      	<path id="J014" style="stroke:none;" d="M29.5 6 L26.5 6 L26.5 15 L27.5 19 L29.5 20"/>
      	<path id="J015" style="stroke:none;" d="M24.5 3 L28.5 23 L32.5 26 L35.5 26 L30 60 L4 60 L2 26 L2 5 L13.5 5 L15 16 L16.5 5"/>
      	<path id="J016" style="stroke:none;" d="M46.5 3 L42.5 23 L38.5 26 L35.5 26 L41 60 L67 60 L69 26 L69 5 L57.5 5 L56 16 L54.5 5"/>
      	<path id="J021" style="stroke:none;" d="M24 6 L24 25 L25.5 29 L29 32 L27 70 L3 70 L1 32 L2 25 L6 5 L10 5 L11.5 16 L13 5 L15 5.5 L17 6 L18.5 16 L20 6"/>
      	<path id="J022" style="stroke:none;" d="M34 6 L34 25 L32.5 29 L29 32 L31 70 L55 70 L57 32 L56 25 L52 5 L48 5 L46.5 16 L45 5 L43 5.5 L41 6 L39.5 16 L38 6"/>
      	<path id="J023" style="stroke:none;" d="M24.5 6 L28 6 L28 17 L27 23 L24.5 25"/>
      	<path id="J024" style="stroke:none;" d="M31.5 6 L28 6 L28 17 L29 23 L31.5 25"/>
      	<path id="J025" style="stroke:none;" d="M25 3 L28.5 26 L31.5 31 L37 32 L31 70 L3 70 L1 32 L1 5 L13.5 5 L15 16 L16.5 5"/>
      	<path id="J026" style="stroke:none;" d="M49 3 L45.5 26 L42.5 31 L37 32 L43 70 L71 70 L73 32 L73 5 L60.5 5 L59 16 L57.5 5"/>
      	<path id="J031" style="stroke:none;" d="M25 6 L25 31 L28.5 37 L31 38 L28 75 L2 75 L0 32 L1 25 L6 5 L10 5 L11.5 16 L13 5 L15 5.5 L17 6 L18.5 16 L20 6"/>
      	<path id="J032" style="stroke:none;" d="M37 6 L37 31 L33.5 37 L31 38 L34 75 L60 75 L62 32 L61 25 L56 5 L52 5 L50.5 16 L49 5 L47 5.5 L45 6 L43.5 16 L42 6"/>
      	<path id="J033" style="stroke:none;" d="M25.5 6 L29 6 L29 17 L28 23 L25.5 25"/>
      	<path id="J034" style="stroke:none;" d="M32.5 6 L29 6 L29 17 L30 23 L32.5 25"/>
      	<path id="J035" style="stroke:none;" d="M25.5 3 L28.5 26 L32.5 34 L39 38 L32 75 L2 75 L0 32 L0 5 L13.5 5 L15 16 L16.5 5"/>
      	<path id="J036" style="stroke:none;" d="M52.5 3 L49.5 26 L45.5 34 L39 38 L46 75 L76 75 L78 32 L78 5 L64.5 5 L63 16 L61.5 5"/>
      	
      	<path id="K011" style="stroke:none;" d="M23.5 6 L23.5 19 L24.5 24 L27.5 26 L26 60 L24 95 L6 95 L4 60 L2 26 L4 16 L6.5 5 L10 5 L11.5 16 L13 5 L15 5.5 L17 6 L18.5 16 L20 6"/>
      	<path id="K012" style="stroke:none;" d="M31.5 6 L31.5 19 L30.5 24 L27.5 26 L29 60 L31 95 L49 95 L51 60 L53 26 L51 16 L48.5 5 L45 5 L43.5 16 L42 5 L40 5.5 L38 6 L36.5 16 L35 6"/>
      	<path id="K013" style="stroke:none;" d="M23.5 6 L26.5 6 L26.5 15 L25.5 19 L23.5 20"/>
      	<path id="K014" style="stroke:none;" d="M29.5 6 L26.5 6 L26.5 15 L27.5 19 L29.5 20"/>
      	<path id="K015" style="stroke:none;" d="M24.5 3 L28.5 23 L32.5 26 L35.5 26 L30 60 L24 95 L6 95 L4 60 L2 26 L2 5 L13.5 5 L15 16 L16.5 5"/>
      	<path id="K016" style="stroke:none;" d="M46.5 3 L42.5 23 L38.5 26 L35.5 26 L41 60 L47 95 L65 95 L67 60 L69 26 L69 5 L57.5 5 L56 16 L54.5 5"/>
      	<path id="K021" style="stroke:none;" d="M24 6 L24 25 L25.5 29 L29 32 L27 70 L25 101 L5 101 L3 70 L1 32 L2 25 L6 5 L10 5 L11.5 16 L13 5 L15 5.5 L17 6 L18.5 16 L20 6"/>
      	<path id="K022" style="stroke:none;" d="M34 6 L34 25 L32.5 29 L29 32 L31 70 L33 101 L53 101 L55 70 L57 32 L56 25 L52 5 L48 5 L46.5 16 L45 5 L43 5.5 L41 6 L39.5 16 L38 6"/>
      	<path id="K023" style="stroke:none;" d="M24.5 6 L28 6 L28 17 L27 23 L24.5 25"/>
      	<path id="K024" style="stroke:none;" d="M31.5 6 L28 6 L28 17 L29 23 L31.5 25"/>
      	<path id="K025" style="stroke:none;" d="M25 3 L28.5 26 L31.5 31 L37 32 L31 70 L29 101 L5 101 L3 70 L1 32 L1 5 L13.5 5 L15 16 L16.5 5"/>
      	<path id="K026" style="stroke:none;" d="M49 3 L45.5 26 L42.5 31 L37 32 L43 70 L45 101 L69 101 L71 70 L73 32 L73 5 L60.5 5 L59 16 L57.5 5"/>
      	<path id="K031" style="stroke:none;" d="M25 6 L25 31 L28.5 37 L31 38 L28 75 L26 107 L4 107 L2 75 L0 32 L1 25 L6 5 L10 5 L11.5 16 L13 5 L15 5.5 L17 6 L18.5 16 L20 6"/>
      	<path id="K032" style="stroke:none;" d="M37 6 L37 31 L33.5 37 L31 38 L34 75 L36 107 L58 107 L60 75 L62 32 L61 25 L56 5 L52 5 L50.5 16 L49 5 L47 5.5 L45 6 L43.5 16 L42 6"/>
      	<path id="K033" style="stroke:none;" d="M25.5 6 L29 6 L29 17 L28 23 L25.5 25"/>
      	<path id="K034" style="stroke:none;" d="M32.5 6 L29 6 L29 17 L30 23 L32.5 25"/>
      	<path id="K035" style="stroke:none;" d="M25.5 3 L28.5 26 L32.5 34 L39 38 L32 75 L30 107 L4 107 L2 75 L0 32 L0 5 L13.5 5 L15 16 L16.5 5"/>
      	<path id="K036" style="stroke:none;" d="M52.5 3 L49.5 26 L45.5 34 L39 38 L46 75 L48 107 L74 107 L76 75 L78 32 L78 5 L64.5 5 L63 16 L61.5 5"/>
      	
      	<path id="L011" style="stroke:none;" d="M5 4.5 L22 5 L39 4.5 L44 3.5 L39 9 L40 10 L41.5 10 L36.5 10.5 L22 10.5 L7.5 10.5 L2.5 10 L4 10 L5 9 L0 3.5"/>
      	<path id="L021" style="stroke:none;" d="M5 4.5 L23 5 L41 4.5 L46 3.5 L41 9 L42 10 L43.5 10 L37.5 10.5 L23 10.5 L8.5 10.5 L2.5 10 L4 10 L5 9 L0 3.5"/>
      	<path id="L031" style="stroke:none;" d="M5 4.5 L24 5 L43 4.5 L48 3.5 L43 9 L44 10 L45.5 10 L38.5 10.5 L24 10.5 L9.5 10.5 L2.5 10 L4 10 L5 9 L0 3.5"/>
      	
      	<path id="M011" style="stroke:none;" d="M5 4.5 L10.5 5 L22 5 L33.5 5 L39 4.5 L40.5 3 L39 9.5 L30.5 8.5 L22 8.5 L13.5 8.5 L5 9.5 L3.5 3"/>
      	<path id="M012" style="stroke:none;" d="M5.5 2.5 L13.5 5 L22 5 L30.5 5 L40.5 2.5 L41 4 L39 5 L30.5 8 L22 8 L13.5 8 L5 5 L3.5 4"/>
      	<path id="M021" style="stroke:none;" d="M5 4.5 L11 5 L23 5 L35 5 L41 4.5 L42.5 3 L41 9.5 L32 8.5 L23 8.5 L14 8.5 L5 9.5 L3.5 3"/>
      	<path id="M022" style="stroke:none;" d="M5.5 2.5 L14 5 L23 5 L32 5 L40.5 2.5 L42.5 4 L41 5 L32 8 L23 8 L14 8 L5 5 L3.5 4"/>
      	<path id="M031" style="stroke:none;" d="M5 4.5 L11.5 5 L24 5 L36.5 5 L43 4.5 L44.5 3 L43 9.5 L33 8.5 L24 8.5 L15 8.5 L5 9.5 L3.5 3"/>
      	<path id="M032" style="stroke:none;" d="M5.5 2.5 L14.5 5 L24 5 L33.5 5 L42.5 2.5 L44.5 4 L43 5 L34 8 L24 8 L14 8 L5 5 L3.5 4"/>
      	
      	<path id="N011" style="stroke:none;" d="M5.5 2.5 L13.5 5 L22 5 L30.5 5 L38.5 2.5 L40.5 4 L39 5 L30.5 8 L22 8 L13.5 8 L5 5 L3.5 4"/>
      	<path id="N021" style="stroke:none;" d="M5.5 2.5 L14 5 L23 5 L32 5 L40.5 2.5 L42.5 4 L41 5 L32 8 L23 8 L14 8 L5 5 L3.5 4"/>
      	<path id="N031" style="stroke:none;" d="M5.5 2.5 L14.5 5 L24 5 L33.5 5 L42.5 2.5 L44.5 4 L43 5 L33.5 8 L23 8 L14.5 8 L5 5 L3.5 4"/>
      	
      	<path id="O011" style="stroke:none;" d="M3.5 3.5 L5 4.5 L22 5 L39 4.5 L40.5 3.5 L39 9.5 L34 11 L22 9.5 L10 11 L5 9.5"/>
      	<path id="O021" style="stroke:none;" d="M3.5 3.5 L5 4.5 L23 5 L41 4.5 L42.5 3.5 L41 9.5 L35 11 L23 9.5 L11 11 L5 9.5"/>
      	<path id="O031" style="stroke:none;" d="M3.5 3.5 L5 4.5 L24 5 L43 4.5 L44.5 3.5 L43 9.5 L36 11 L24 9.5 L12 11 L5 9.5"/>
      	
      	<path id="P011" style="stroke:none;" d="M3.5 3.5 L5 4.5 L22 5 L39 4.5 L40.5 3.5 L39 9.5 L34 11 L22 11 L10 11 L5 9.5"/>
      	<path id="P021" style="stroke:none;" d="M3.5 3.5 L5 4.5 L23 5 L41 4.5 L42.5 3.5 L41 9.5 L35 11 L23 11 L11 11 L5 9.5"/>
      	<path id="P031" style="stroke:none;" d="M3.5 3.5 L5 4.5 L24 5 L43 4.5 L44.5 3.5 L43 9.5 L36 11 L24 11 L12 11 L5 9.5"/>
      	
      	<path id="Q011" style="stroke:none;" d="M15.5 0 L29 3 L32 25 L29 47 L15.5 50 L12 43 L6 36 L1 29 L0 25 L1 21 L6 14 L12 7"/>
      	<path id="Q012" style="stroke:none;" d="M48.5 0 L35 3 L32 25 L35 47 L48.5 50 L52 43 L58 36 L63 29 L64 25 L63 21 L58 14 L52 7"/>
      	<path id="Q013" style="stroke:none;" d="M0 0 L5 0 L5 32 L0 32"/>
      	<path id="Q014" style="stroke:none;" d="M0 0 L5 0 L5 32 L0 32"/>
      	<path id="Q021" style="stroke:none;" d="M15.5 0 L31 3 L34 26 L31 49 L15.5 52 L12 48 L6 40 L1 32 L0 26 L1 24 L6 16 L12 8"/>
      	<path id="Q022" style="stroke:none;" d="M52.5 0 L37 3 L34 26 L37 49 L52.5 52 L56 48 L63 40 L67 32 L68 26 L67 24 L63 16 L56 8"/>
      	<path id="Q023" style="stroke:none;" d="M0 0 L5 0 L5 34 L0 34"/>
      	<path id="Q024" style="stroke:none;" d="M0 0 L5 0 L5 34 L0 34"/>
      	<path id="Q031" style="stroke:none;" d="M15.5 0 L33 3.5 L36 27 L33 50.5 L15.5 54 L12 48 L5 40 L1 32 L0 27 L1 24 L5 16 L12 8"/>
      	<path id="Q032" style="stroke:none;" d="M56.5 0 L39 3.5 L36 27 L39 50.5 L56.5 54 L60 48 L67 40 L71 32 L72 27 L71 24 L67 16 L60 8"/>
      	<path id="Q033" style="stroke:none;" d="M0 0 L5 0 L5 35 L0 35"/>
      	<path id="Q034" style="stroke:none;" d="M0 0 L5 0 L5 35 L0 35"/>
      	
      	<path id="R011" style="stroke:none;" d="M15.5 0 L55 10.5 L58 25 L55 39.5 L15.5 50 L12 43 L6 36 L1 29 L0 25 L1 21 L6 14 L12 7"/>
      	<path id="R012" style="stroke:none;" d="M100.5 0 L61 10.5 L58 25 L61 39.5 L100.5 50 L104 43 L110 36 L115 29 L116 25 L115 21 L110 14 L104 7"/>
      	<path id="R013" style="stroke:none;" d="M0 0 L5 0 L5 17 L0 17"/>
      	<path id="R014" style="stroke:none;" d="M0 0 L5 0 L5 17 L0 17"/>
      	<path id="R021" style="stroke:none;" d="M15.5 0 L58 10.5 L61 26 L58 41.5 L15.5 52 L12 48 L6 40 L1 32 L0 26 L1 24 L6 16 L12 8"/>
      	<path id="R022" style="stroke:none;" d="M106.5 0 L64 10.5 L61 26 L64 41.5 L106.5 52 L110 48 L116 40 L121 32 L122 26 L121 24 L116 16 L110 8"/>
      	<path id="R023" style="stroke:none;" d="M0 0 L5 0 L5 19 L0 19"/>
      	<path id="R024" style="stroke:none;" d="M0 0 L5 0 L5 19 L0 19"/>
      	<path id="R031" style="stroke:none;" d="M15.5 0 L61 10.5 L64 27 L61 43.5 L15.5 54 L12 48 L5 40 L1 32 L0 27 L1 24 L5 16 L12 8"/>
      	<path id="R032" style="stroke:none;" d="M112.5 0 L67 10.5 L64 27 L67 43.5 L112.5 54 L116 48 L123 40 L127 32 L128 27 L127 24 L123 16 L116 8"/>
      	<path id="R033" style="stroke:none;" d="M0 0 L5 0 L5 21 L0 21"/>
      	<path id="R034" style="stroke:none;" d="M0 0 L5 0 L5 21 L0 21"/>
      	
      	<path id="S011" style="stroke:none;" d="M15.5 0 L29 5 L32 28 L29 51 L15.5 56 L12 48 L6 40 L1 32 L0 28 L1 24 L6 16 L12 8"/>
      	<path id="S012" style="stroke:none;" d="M48.5 0 L35 5 L32 28 L35 51 L48.5 56 L52 48 L58 40 L63 32 L64 28 L63 24 L58 16 L52 8"/>
      	<path id="S013" style="stroke:none;" d="M0 0 L5 0 L5 32 L0 32"/>
      	<path id="S014" style="stroke:none;" d="M0 0 L5 0 L5 32 L0 32"/>
      	<path id="S021" style="stroke:none;" d="M15.5 0 L31 5 L34 29 L31 53 L15.5 58 L12 48 L6 40 L1 32 L0 29 L1 24 L6 16 L12 8"/>
      	<path id="S022" style="stroke:none;" d="M52.5 0 L37 5 L34 29 L37 53 L52.5 58 L56 48 L63 40 L67 32 L68 29 L67 24 L63 16 L56 8"/>
      	<path id="S023" style="stroke:none;" d="M0 0 L5 0 L5 34 L0 34"/>
      	<path id="S024" style="stroke:none;" d="M0 0 L5 0 L5 34 L0 34"/>
      	<path id="S031" style="stroke:none;" d="M15.5 0 L33 5 L36 30 L33 55 L15.5 60 L12 48 L5 40 L1 32 L0 30 L1 24 L5 16 L12 8"/>
      	<path id="S032" style="stroke:none;" d="M56.5 0 L39 5 L36 30 L39 55 L56.5 60 L60 48 L67 40 L71 32 L72 30 L71 24 L67 16 L60 8"/>
      	<path id="S033" style="stroke:none;" d="M0 0 L5 0 L5 35 L0 35"/>
      	<path id="S034" style="stroke:none;" d="M0 0 L5 0 L5 35 L0 35"/>
      	
      	<path id="T011" style="stroke:none;" d="M15.5 0 L55 5 L58 28 L55 51 L15.5 56 L12 48 L6 40 L1 32 L0 28 L1 24 L6 16 L12 8"/>
      	<path id="T012" style="stroke:none;" d="M100.5 0 L61 5 L58 28 L61 51 L100.5 56 L104 48 L110 40 L115 32 L116 28 L115 24 L110 16 L104 8"/>
      	<path id="T013" style="stroke:none;" d="M0 0 L5 0 L5 17 L0 17"/>
      	<path id="T014" style="stroke:none;" d="M0 0 L5 0 L5 17 L0 17"/>
      	<path id="T021" style="stroke:none;" d="M15.5 0 L58 5 L61 29 L58 53 L15.5 58 L12 48 L6 40 L1 32 L0 26 L1 24 L6 16 L12 8"/>
      	<path id="T022" style="stroke:none;" d="M106.5 0 L64 5 L61 29 L64 53 L106.5 58 L110 48 L116 40 L121 32 L122 26 L121 24 L116 16 L110 8"/>
      	<path id="T023" style="stroke:none;" d="M0 0 L5 0 L5 19 L0 19"/>
      	<path id="T024" style="stroke:none;" d="M0 0 L5 0 L5 19 L0 19"/>
      	<path id="T031" style="stroke:none;" d="M15.5 0 L61 5 L64 30 L61 55 L15.5 60 L12 48 L5 40 L1 32 L0 30 L1 24 L5 16 L12 8"/>
      	<path id="T032" style="stroke:none;" d="M112.5 0 L67 5 L64 30 L67 55 L112.5 60 L116 48 L123 40 L127 32 L128 30 L127 24 L123 16 L116 8"/>
      	<path id="T033" style="stroke:none;" d="M0 0 L5 0 L5 21 L0 21"/>
      	<path id="T034"  style="stroke:none;" d="M0 0 L5 0 L5 21 L0 21"/>
      	
      	<path id="U011" style="stroke:none;" d="M12.5 0 L26 3 L35 3 L35 35 L26 35 L12.5 38 L9.5 33 L5 28 L1 23 L0 19 L1 15 L5 10 L9.5 5"/>
      	<path id="U012" style="stroke:none;" d="M57.5 0 L44 3 L35 3 L35 35 L44 35 L57.5 38 L60.5 33 L65 28 L69 23 L70 19 L69 15 L65 10 L60.5 5"/>
      	<path id="U021" style="stroke:none;" d="M12.5 0 L28 3 L37 3 L37 37 L28 37 L12.5 40 L9.5 33 L5 28 L1 23 L0 20 L1 15 L5 10 L9.5 5"/>
      	<path id="U022" style="stroke:none;" d="M61.5 0 L46 3 L37 3 L37 37 L46 37 L61.5 40 L64.5 33 L69 28 L73 23 L74 20 L73 15 L69 10 L64.5 5"/>
      	<path id="U031" style="stroke:none;" d="M12.5 0 L30 3.5 L39 3.5 L39 38.5 L30 38.5 L12.5 40 L9.5 33 L5 28 L1 23 L0 20 L1 15 L5 10 L9.5 5 L12.5 0"/>
      	<path id="U032" style="stroke:none;" d="M65.5 0 L48 3.5 L39 3.5 L39 38.5 L48 38.5 L65.5 40 L68.5 33 L73 28 L77 23 L78 20 L77 15 L73 10 L68.5 5 L65.5 0"/>
      	
      	<path id="V011" style="stroke:none;" d="M12.5 0 L52 10.5 L61 10.5 L61 27.5 L52 27.5 L12.5 38 L9.5 33 L5 28 L1 23 L0 19 L1 15 L5 10 L9.5 5"/>
      	<path id="V012" style="stroke:none;" d="M109.5 0 L70 10.5 L61 10.5 L61 27.5 L70 27.5 L109.5 38 L112.5 33 L117 28 L121 23 L122 19 L121 15 L117 10 L112.5 5"/>
      	<path id="V021" style="stroke:none;" d="M12.5 0 L55 10.5 L64 10.5 L64 29.5 L55 29.5 L12.5 40 L9.5 33 L5 28 L1 23 L0 20 L1 15 L5 10 L9.5 5"/>
      	<path id="V022" style="stroke:none;" d="M115.5 0 L73 10.5 L64 10.5 L64 29.5 L73 29.5 L115.5 40 L118.5 33 L123 28 L127 23 L128 20 L127 15 L123 10 L118.5 5"/>
      	<path id="V031" style="stroke:none;" d="M12.5 0 L58 10.5 L67 10.5 L67 31.5 L58 31.5 L12.5 42 L9.5 33 L5 28 L1 23 L0 20 L1 15 L5 10 L9.5 5"/>
      	<path id="V032" style="stroke:none;" d="M121.5 0 L76 10.5 L67 10.5 L67 31.5 L76 31.5 L121.5 42 L124.5 33 L129 28 L133 23 L134 20 L133 15 L129 10 L124.5 5"/>
      	
      	<path id="W011" style="stroke:none;" d="M12.5 0 L26 3 L26 35 L12.5 38 L9.5 33 L5 28 L1 23 L0 19 L1 15 L5 10 L9.5 5"/>
      	<path id="W012" style="stroke:none;" d="M39.5 0 L26 3 L26 35 L39.5 38 L42.5 33 L47 28 L51 23 L52 19 L51 15 L47 10 L42.5 5"/>
      	<path id="W021" style="stroke:none;" d="M12.5 0 L28 3 L28 37 L12.5 40 L9.5 33 L5 28 L1 23 L0 20 L1 15 L5 10 L9.5 5"/>
      	<path id="W022" style="stroke:none;" d="M43.5 0 L28 3 L28 37 L43.5 40 L46.5 33 L51 28 L55 23 L56 20 L55 15 L51 10 L46.5 5"/>
      	<path id="W031" style="stroke:none;" d="M12.5 0 L30 3.5 L30 38.5 L12.5 40 L9.5 33 L5 28 L1 23 L0 20 L1 15 L5 10 L9.5 5"/>
      	<path id="W032" style="stroke:none;" d="M47.5 0 L30 3.5 L30 38.5 L47.5 40 L50.5 33 L55 28 L59 23 L60 20 L59 15 L55 10 L50.5 5"/>
      	
      	<path id="X011" style="stroke:none;" d="M12.5 0 L52 10.5 L52 27.5 L12.5 38 L9.5 33 L5 28 L1 23 L0 19 L1 15 L5 10 L9.5 5"/>
      	<path id="X012" style="stroke:none;" d="M91.5 0 L52 10.5 L52 27.5 L91.5 38 L94.5 33 L99 28 L103 23 L104 19 L103 15 L99 10 L94.5 5"/>
      	<path id="X021" style="stroke:none;" d="M12.5 0 L55 10.5 L55 29.5 L12.5 40 L9.5 33 L5 28 L1 23 L0 20 L1 15 L5 10 L9.5 5"/>
      	<path id="X022" style="stroke:none;" d="M97.5 0 L55 10.5 L55 29.5 L97.5 40 L100.5 33 L105 28 L109 23 L110 20 L109 15 L105 10 L100.5 5"/>
      	<path id="X031" style="stroke:none;" d="M12.5 0 L58 10.5 L58 31.5 L12.5 40 L9.5 33 L5 28 L1 23 L0 20 L1 15 L5 10 L9.5 5"/>
      	<path id="X032" style="stroke:none;" d="M103.5 0 L58 10.5 L58 31.5 L103.5 40 L106.5 33 L111 28 L115 23 L116 20 L115 15 L111 10 L106.5 5"/>
      	
      	<path id="Y011" style="stroke:none;" d="M20 0 L29 3 L29 47 L20 50 L15 43 L6 36 L1 29 L0 25 L1 21 L6 14 L15 7"/>
      	<path id="Y012" style="stroke:none;" d="M38 0 L29 3 L29 47 L38 50 L43 43 L52 36 L57 29 L58 25 L57 21 L52 14 L43 7"/>
      	<path id="Y021" style="stroke:none;" d="M20 0 L31 3 L31 49 L20 52 L15 48 L6 40 L1 32 L0 26 L1 24 L6 16 L15 8"/>
      	<path id="Y022" style="stroke:none;" d="M42 0 L31 3 L31 49 L42 52 L47 48 L56 40 L61 32 L62 26 L61 24 L56 16 L47 8"/>
      	<path id="Y031" style="stroke:none;" d="M20 0 L33 3.5 L33 50.5 L20 54 L15 48 L6 40 L1 32 L0 27 L1 24 L6 16 L15 8"/>
      	<path id="Y032" style="stroke:none;" d="M46 0 L33 3.5 L33 50.5 L46 54 L51 48 L60 40 L65 32 L66 27 L65 24 L60 16 L51 8"/>
      	
      	<path id="Z011" style="stroke:none;" d="M20 0 L55 10.5 L55 39.5 L20 50 L15 43 L6 36 L1 29 L0 25 L1 21 L6 14 L15 7"/>
      	<path id="Z012" style="stroke:none;" d="M90 0 L55 10.5 L55 39.5 L90 50 L95 43 L104 36 L109 29 L110 25 L109 21 L104 14 L95 7"/>
      	<path id="Z021" style="stroke:none;" d="M20 0 L58 10.5 L58 41.5 L20 52 L15 48 L6 40 L1 32 L0 26 L1 24 L6 16 L15 8"/>
      	<path id="Z022" style="stroke:none;" d="M96 0 L58 10.5 L58 41.5 L96 52 L101 48 L110 40 L115 32 L116 26 L115 24 L110 16 L101 8"/>
      	<path id="Z031" style="stroke:none;" d="M20 0 L61 10.5 L61 43.5 L20 54 L15 48 L6 40 L1 32 L0 27 L1 24 L6 16 L15 8"/>
      	<path id="Z032" style="stroke:none;" d="M102 0 L61 10.5 L61 43.5 L102 54 L107 48 L116 40 L121 32 L122 27 L121 24 L116 16 L107 8"/>
      	
      	<path id="AA011" style="stroke:none;" d="M10 3.5 L21 0 L22.5 3.5 L25.5 7 L28.5 7 L31.5 3.5 L33 0 L44 3.5 L42.5 14.5 L44.5 18.5 L47 20.5 L49.5 22.5 L47.5 45 L38 45 L36.5 34 L35 45 L27 45 L19 45 L17.5 34 L16 45 L6.5 45 L4.5 22.5 L7 20.5 L9.5 18.5 L11.5 14.5"/>
      	<path id="AA012" style="stroke:none;" d="M5 0 L14.5 0.9 L16 13 L17.5 1.1 L25.5 1.5 L33.5 1.1 L35 13 L36.5 0.9 L46 0 L48.5 17 L50.5 53.5 L25.5 56.5 L0.5 53.5 L2.5 17"/>
      	<path id="AA013" style="stroke:none;" d="M10 3.5 L21 0 L22.5 1 L25.5 2 L28.5 2 L31.5 1 L33 0 L44 3.5 L42.5 14.5 L44.5 18.5 L47 20.5 L49.5 22.5 L47.5 45 L38 45 L36.5 34 L35 45 L27 45 L19 45 L17.5 34 L16 45 L6.5 45 L4.5 22.5 L7 20.5 L9.5 18.5 L11.5 14.5"/>
      	<path id="AA014" style="stroke:none;" d="M5 0 L14.5 0.9 L16 13 L17.5 1.1 L25.5 1.5 L33.5 1.1 L35 13 L36.5 0.9 L46 0 L48.5 17 L50.5 53.5 L25.5 56.5 L0.5 53.5 L2.5 17"/>
      	<path id="AA021" style="stroke:none;" d="M10 3.5 L22 0 L23.5 4 L26.5 8 L30.5 8 L33.5 4 L35 0 L47 3.5 L45 18 L47.5 22 L49 24 L52 26 L50 47 L40 47 L38.5 36 L37 47 L28.5 47 L20 47 L18.5 36 L17 47 L7 47 L5 26 L8 24 L9.5 22 L12 18"/>
      	<path id="AA022" style="stroke:none;" d="M5 0 L15.5 0.9 L17 13 L18.5 1.1 L27 1.5 L35.5 1.1 L37 13 L38.5 0.9 L49 0 L52 18 L53 63.5 L27 66.5 L1 63.5 L2 18"/>
      	<path id="AA023" style="stroke:none;" d="M10 3.5 L22 0 L23.5 1 L26.5 2.5 L30.5 2.5 L33.5 1 L35 0 L47 3.5 L45 18 L47.5 22 L49 24 L52 26 L50 47 L40 47 L38.5 36 L37 47 L28.5 47 L20 47 L18.5 36 L17 47 L7 47 L5 26 L8 24 L9.5 22 L12 18"/>
      	<path id="AA024" style="stroke:none;" d="M5 0 L15.5 0.9 L17 13 L18.5 1.1 L27 1.5 L35.5 1.1 L37 13 L38.5 0.9 L49 0 L52 18 L53 63.5 L27 66.5 L1 63.5 L2 18"/>
      	<path id="AA031" style="stroke:none;" d="M10 3.5 L23 0 L24.5 5 L27.5 9 L32.5 9 L35.5 5 L37 0 L50 3.5 L47.5 21 L49.5 26 L52 28 L54.5 30 L52.5 49 L42 49 L40.5 38 L39 49 L30 49 L21 49 L19.5 38 L18 49 L7.5 49 L5.5 30 L8 28 L10.5 26 L12.5 21"/>
      	<path id="AA032" style="stroke:none;" d="M5 0 L16.5 0.9 L18 13 L19.5 1.1 L28.5 1.5 L37.5 1.1 L39 13 L40.5 0.9 L52 0 L56 20 L57 68.5 L28.5 70 L0 68.5 L1 20"/>
      	<path id="AA033" style="stroke:none;" d="M10 3.5 L23 0 L24.5 2 L27.5 4 L32.5 4 L35.5 2 L37 0 L50 3.5 L47.5 21 L49.5 26 L52 28 L54.5 30 L52.5 49 L42 49 L40.5 38 L39 49 L30 49 L21 49 L19.5 38 L18 49 L7.5 49 L5.5 30 L8 28 L10.5 26 L12.5 21"/>
      	<path id="AA034" style="stroke:none;" d="M5 0 L16.5 0.9 L18 13 L19.5 1.1 L28.5 1.5 L37.5 1.1 L39 13 L40.5 0.9 L52 0 L56 20 L57 68.5 L28.5 70 L0 68.5 L1 20"/>
      	
      	<path id="A111" style="stroke:none;" d="M10 3.5 L21 0 L22.5 3.5 L25.5 7 L28.5 7 L31.5 3.5 L33 0 L44 3.5 L42.5 14.5 L44.5 18.5 L47 20.5 L49.5 22.5 L49.5 71.5 L4.5 71.5 L4.5 22.5 L7 20.5 L9.5 18.5 L11.5 14.5"/>
      	<path id="A112" style="stroke:none;" d="M10 3.5 L21 0 L22.5 1 L25.5 2 L28.5 2 L31.5 1 L33 0 L44 3.5 L42.5 14.5 L44.5 18.5 L47 20.5 L49.5 22.5 L49.5 71.5 L4.5 71.5 L4.5 22.5 L7 20.5 L9.5 18.5 L11.5 14.5"/>
      	<path id="A121" style="stroke:none;" d="M10 3.5 L22 0 L23.5 4 L26.5 8 L30.5 8 L33.5 4 L35 0 L47 3.5 L45 18 L47.5 22 L49 24 L52 26 L52 76.5 L5 76.5 L5 26 L8 24 L9.5 22 L12 18"/>
      	<path id="A122" style="stroke:none;" d="M10 3.5 L22 0 L23.5 1 L26.5 2.5 L30.5 2.5 L33.5 1 L35 0 L47 3.5 L45 18 L47.5 22 L49 24 L52 26 L52 76.5 L5 76.5 L5 26 L8 24 L9.5 22 L12 18"/>
      	<path id="A131" style="stroke:none;" d="M10 3.5 L23 0 L24.5 5 L27.5 9 L32.5 9 L35.5 5 L37 0 L50 3.5 L47.5 21 L49.5 26 L52 28 L54.5 30 L54.5 81.5 L5.5 81.5 L5.5 30 L8 28 L10.5 26 L12.5 21"/>
      	<path id="A132" style="stroke:none;" d="M10 3.5 L23 0 L24.5 2 L27.5 4 L32.5 4 L35.5 2 L37 0 L50 3.5 L47.5 21 L49.5 26 L52 28 L54.5 30 L54.5 81.5 L5.5 81.5 L5.5 30 L8 28 L10.5 26 L12.5 21"/>
      	
      	<path id="B111" style="stroke:none;" d="M10 3.5 L21 0 L22.5 3.5 L25.5 7 L32 7 L32 71.5 L4.5 71.5 L4.5 22.5 L7 20.5 L9.5 18.5 L11.5 14.5"/>
      	<path id="B112" style="stroke:none;" d="M22 7 L28.5 7 L31.5 3.5 L33 0 L44 3.5 L42.5 14.5 L44.5 18.5 L47 20.5 L49.5 22.5 L49.5 71.5 L22 71.5"/>
      	<path id="B113" style="stroke:none;" d="M10 3.5 L21 0 L22.5 1 L25.5 2 L28.5 2 L31.5 1 L33 0 L44 3.5 L42.5 14.5 L44.5 18.5 L47 20.5 L49.5 22.5 L49.5 71.5 L4.5 71.5 L4.5 22.5 L7 20.5 L9.5 18.5 L11.5 14.5"/>
      	<path id="B121" style="stroke:none;" d="M10 3.5 L22 0 L23.5 4 L26.5 8 L33.5 8 L33.5 76.5 L5 76.5 L5 26 L8 24 L9.5 22 L12 14.5"/>
      	<path id="B122" style="stroke:none;" d="M23.5 8 L30.5 8 L33.5 4 L35 0 L47 3.5 L45 18 L47.5 22 L49 24 L52 26 L52 76.5 L23.5 76.5"/>
      	<path id="B123" style="stroke:none;" d="M10 3.5 L22 0 L23.5 1 L26.5 2.5 L30.5 2.5 L33.5 1 L35 0 L47 3.5 L45 18 L47.5 22 L49 24 L52 26 L52 76.5 L5 76.5 L5 26 L8 24 L9.5 22 L12 18"/>
      	<path id="B131" style="stroke:none;" d="M10 3.5 L23 0 L24.5 5 L27.5 9 L35 9 L35 81.5 L5.5 81.5 L5.5 30 L8 28 L10.5 26 L12.5 21"/>
      	<path id="B132" style="stroke:none;" d="M25 9 L32.5 9 L35.5 5 L37 0 L50 3.5 L47.5 21 L49.5 26 L52 28 L54.5 30 L54.5 81.5 L25 81.5"/>
      	<path id="B133" style="stroke:none;" d="M10 3.5 L23 0 L24.5 2 L27.5 4 L32.5 4 L35.5 2 L37 0 L50 3.5 L47.5 21 L49.5 26 L52 28 L54.5 30 L54.5 81.5 L5.5 81.5 L5.5 30 L8 28 L10.5 26 L12.5 21"/>

      	<path id="C111" style="stroke:none;" d="M24.5 6 L24.5 23 L25.5 27 L28.5 30 L27 65 L3 65 L1.5 30 L2 23 L5.5 5 L10 5 L11.5 16 L13 5 L15 5.5 L17 6 L18.5 16 L20 6"/>
      	<path id="C112" style="stroke:none;" d="M24.5 6 L24.5 23 L23.5 27 L20.5 30 L22 65 L45 65 L46.5 30 L46 23 L42.5 5 L38 5 L36.5 16 L35 5 L33 5.5 L31 6 L29.5 16 L28 6"/>
      	<path id="C113" style="stroke:none;" d="M24.5 6 L27.5 6 L27.5 17 L26.5 22 L24.5 23"/>
      	<path id="C114" style="stroke:none;" d="M24.5 6 L21.5 6 L21.5 17 L22.5 22 L24.5 23"/>
      	<path id="C115" style="stroke:none;" d="M24.5 3 L19.5 23 L16.5 27 L12.5 30 L18 65 L46 65 L47.5 30 L47.5 5 L37.5 5 L36 16 L34.5 5"/>
      	<path id="C116" style="stroke:none;" d="M24.5 3 L29.5 23 L32.5 27 L36.5 30 L31 65 L3 65 L1.5 30 L1.5 5 L13.5 5 L15 16 L16.5 5"/>
      	<path id="C121" style="stroke:none;" d="M25 6 L25 27 L25.5 29 L30 34 L27.5 70 L2.5 70 L0.5 34 L1 27 L5 5 L10 5 L11.5 16 L13 5 L15 5.5 L17 6 L18.5 16 L20 6"/>
      	<path id="C122" style="stroke:none;" d="M25 6 L25 27 L24.5 29 L20 34 L22.5 70 L47.5 70 L49.5 34 L49 27 L45 5 L40 5 L38.5 16 L37 5 L35 5.5 L33 6 L31.5 16 L30 6"/>
      	<path id="C123" style="stroke:none;" d="M25 6 L28.5 6 L28.5 18 L27.5 24 L25 27"/>
      	<path id="C124" style="stroke:none;" d="M25 6 L21.5 6 L21.5 18 L22.5 24 L25 27"/>
      	<path id="C125" style="stroke:none;" d="M26 3 L21.5 24 L18.5 29 L14 34 L20.5 70 L49 70 L51.5 34 L51.5 5 L38.5 5 L37 16 L35.5 5"/>
      	<path id="C126" style="stroke:none;" d="M26 3 L30.5 24 L33.5 29 L38 34 L31.5 70 L3 70 L0.5 34 L0.5 5 L13.5 5 L15 16 L16.5 5"/>
      	<path id="C131" style="stroke:none;" d="M25.5 6 L25.5 33 L28.5 38 L31.5 40 L28.5 80 L1.5 80 L0 32 L1 25 L5.5 5 L10 5 L11.5 16 L13 5 L15 5.5 L17 6 L18.5 16 L20 6"/>
      	<path id="C132" style="stroke:none;" d="M25.5 6 L25.5 33 L22.5 38 L19.5 40 L22.5 80 L49.5 80 L51 32 L50 25 L45.5 5 L41 5 L39.5 16 L38 5 L36 5.5 L34 6 L32.5 16 L31 6"/>
      	<path id="C133" style="stroke:none;" d="M25.5 6 L29.5 6 L29.5 24 L28.5 29 L25.5 33"/>
      	<path id="C134" style="stroke:none;" d="M25.5 6 L21.5 6 L21.5 24 L22.5 29 L25.5 33"/>
      	<path id="C135" style="stroke:none;" d="M26.5 3 L22.5 29 L19.5 35 L14.5 40 L20.5 80 L50 80 L53 40 L53 5 L39.5 5 L38 16 L36.5 5"/>
      	<path id="C136" style="stroke:none;" d="M26.5 3 L30.5 29 L33.5 35 L38.5 40 L32.5 80 L3 80 L0 40 L0 5 L13.5 5 L15 16 L16.5 5"/>
      	
      	<path id="D111" style="stroke:none;" d="M24.5 6 L24.5 23 L25.5 27 L28.5 30 L27 65 L24.5 99 L5.5 99 L3 65 L1.5 30 L2 23 L5.5 5 L10 5 L11.5 16 L13 5 L15 5.5 L17 6 L18.5 16 L20 6"/>
      	<path id="D112" style="stroke:none;" d="M24.5 6 L24.5 23 L23.5 27 L20.5 30 L22 65 L24.5 99 L43.5 99 L45 65 L46.5 30 L46 23 L42.5 5 L38 5 L36.5 16 L35 5 L33 5.5 L31 6 L29.5 16 L28 6"/>
      	<path id="D113" style="stroke:none;" d="M24.5 6 L27.5 6 L27.5 17 L26.5 22 L24.5 23"/>
      	<path id="D114" style="stroke:none;" d="M24.5 6 L21.5 6 L21.5 17 L22.5 22 L24.5 23"/>
      	<path id="D115" style="stroke:none;" d="M24.5 3 L19.5 23 L16.5 27 L12.5 30 L18 65 L20.5 99 L43.5 99 L46 65 L47.5 30 L47.5 5 L35.5 5 L34 16 L32.5 5"/>
      	<path id="D116" style="stroke:none;" d="M24.5 3 L29.5 23 L32.5 27 L36.5 30 L31 65 L28.5 99 L5.5 99 L3 65 L1.5 30 L1.5 5 L13.5 5 L15 16 L16.5 5"/>
      	<path id="D121" style="stroke:none;" d="M25 6 L25 27 L25.5 29 L30 34 L27.5 70 L25 103 L4 103 L2.5 70 L0.5 34 L1 27 L5 5 L10 5 L11.5 16 L13 5 L15 5.5 L17 6 L18.5 16 L20 6"/>
      	<path id="D122" style="stroke:none;" d="M25 6 L25 27 L24.5 29 L20 34 L22.5 70 L24 103 L46 103 L47.5 70 L49.5 34 L49 27 L45 5 L40 5 L38.5 16 L37 5 L35 5.5 L33 6 L31.5 16 L30 6"/>
      	<path id="D123" style="stroke:none;" d="M25 6 L28.5 6 L28.5 18 L27.5 24 L25 27"/>
      	<path id="D124" style="stroke:none;" d="M25 6 L21.5 6 L21.5 18 L22.5 24 L25 27"/>
      	<path id="D125" style="stroke:none;" d="M26 3 L21.5 24 L18.5 29 L14 34 L20.5 70 L22 103 L46.5 103 L49 70 L51.5 34 L51.5 5 L38.5 5 L37 16 L35.5 5"/>
      	<path id="D126" style="stroke:none;" d="M26 3 L30.5 24 L33.5 29 L38 34 L31.5 70 L30.5 103 L5.5 103 L3 70 L0.5 34 L0.5 5 L13.5 5 L15 16 L16.5 5"/>
      	<path id="D131" style="stroke:none;" d="M25.5 6 L25.5 33 L28.5 38 L31.5 40 L28.5 80 L26.5 107 L3.5 107 L1.5 80 L0 32 L1 25 L5.5 5 L10 5 L11.5 16 L13 5 L15 5.5 L17 6 L18.5 16 L20 6"/>
      	<path id="D132" style="stroke:none;" d="M25.5 6 L25.5 33 L22.5 38 L19.5 40 L22.5 80 L24.5 107 L47.5 107 L49.5 80 L51 32 L50 25 L45.5 5 L41 5 L39.5 16 L38 5 L36 5.5 L34 6 L32.5 16 L31 6"/>
      	<path id="D133" style="stroke:none;" d="M25.5 6 L29.5 6 L29.5 24 L28.5 29 L25.5 33"/>
      	<path id="D134" style="stroke:none;" d="M25.5 6 L21.5 6 L21.5 24 L22.5 29 L25.5 33"/>
      	<path id="D135" style="stroke:none;" d="M26.5 3 L22.5 29 L19.5 35 L14.5 40 L20.5 80 L22.5 107 L47.5 107 L50 80 L53 40 L53 5 L39.5 5 L38 16 L36.5 5"/>
      	<path id="D136" style="stroke:none;" d="M26.5 3 L30.5 29 L33.5 35 L38.5 40 L32.5 80 L35 107 L5.5 107 L3 80 L0 40 L0 5 L13.5 5 L15 16 L16.5 5"/>
      	
      	<path id="E111" style="stroke:none;" d="M5 4.5 L23.5 5 L42 4.5 L47 3.5 L42 9 L43 10 L44.5 10 L38.5 10.5 L23.5 10.5 L8.5 10.5 L2.5 10 L4 10 L5 9 L0 3.5"/>
      	<path id="E121" style="stroke:none;" d="M5 4.5 L24.5 5 L44 4.5 L49 3.5 L44 9 L45 10 L46.5 10 L40 10.5 L24.5 10.5 L9 10.5 L2.5 10 L4 10 L5 9 L0 3.5"/>
      	<path id="E131" style="stroke:none;" d="M5 4.5 L25.5 5 L46 4.5 L51 3.5 L46 9 L47 10 L48.5 10 L41.5 10.5 L25.5 10.5 L9.5 10.5 L2.5 10 L4 10 L5 9 L0 3.5"/>
      	
      	<path id="F111" style="stroke:none;" d="M5 4.5 L11.5 5 L23.5 5 L35.5 5 L42 4.5 L43.5 3 L42 9.5 L32.5 8.5 L23.5 8.5 L14.5 8.5 L5 9.5 L3.5 3"/>
      	<path id="F112" style="stroke:none;" d="M5.5 2.5 L14.5 5 L23.5 5 L32.5 5 L41.5 2.5 L43.5 4 L42 5 L32.5 8 L23.5 8 L14.5 8 L5 5 L3.5 4"/>
      	<path id="F121" style="stroke:none;" d="M5 4.5 L11.5 5 L24.5 5 L37.5 5 L44 4.5 L45.5 3 L44 9.5 L34 8.5 L24.5 8.5 L15 8.5 L5 9.5 L3.5 3"/>
      	<path id="F122" style="stroke:none;" d="M5.5 2.5 L15 5 L24.5 5 L34 5 L43.5 2.5 L46 4 L45.5 5 L34 8 L24.5 8 L15 8 L5 5 L3.5 4"/>
      	<path id="F131" style="stroke:none;" d="M5 4.5 L12 5 L25.5 5 L39 5 L46 4.5 L47.5 3 L46 9.5 L35.5 8.5 L25.5 8.5 L15.5 8.5 L5 9.5 L3.5 3"/>
      	<path id="F132" style="stroke:none;" d="M5.5 2.5 L15.5 5 L25.5 5 L35.5 5 L45.5 2.5 L47.5 4 L46 5 L35.5 8 L25.5 8 L15.5 8 L5 5 L3.5 4"/>
      	
      	<path id="G111" style="stroke:none;" d="M5.5 2.5 L14.5 5 L23.5 5 L32.5 5 L41.5 2.5 L43.5 4 L42 5 L32.5 8 L23.5 8 L14.5 8 L5 5 L3.5 4"/>
      	<path id="G121" style="stroke:none;" d="M5.5 2.5 L15 5 L24.5 5 L34.5 5 L45.5 2.5 L46.5 4 L45.5 5 L34.5 8 L24.5 8 L15 8 L5 5 L3.5 4"/>
      	<path id="G131" style="stroke:none;" d="M5.5 2.5 L15.5 5 L25.5 5 L35.5 5 L45.5 2.5 L47.5 4 L46 5 L35.5 8 L25.5 8 L15.5 8 L5 5 L3.5 4"/>
      	
      	<path id="H111" style="stroke:none;" d="M3.5 3.5 L5 4.5 L23.5 5 L42 4.5 L43.5 3.5 L42 9.5 L36 11 L23.5 9.5 L11 11 L5 9.5"/>
      	<path id="H121" style="stroke:none;" d="M3.5 3.5 L5 4.5 L24.5 5 L44 4.5 L45.5 3.5 L44 9.5 L37.5 11 L24.5 9.5 L11.5 11 L5 9.5"/>
      	<path id="H131" style="stroke:none;" d="M3.5 3.5 L5 4.5 L25.5 5 L46 4.5 L47.5 3.5 L46 9.5 L38.5 11 L25.5 9.5 L12.5 11 L5 9.5"/>
      	
      	<path id="I111" style="stroke:none;" d="M3.5 3.5 L5 4.5 L23.5 5 L42 4.5 L43.5 3.5 L42 9.5 L36 11 L23.5 11 L11 11 L5 9.5"/>
      	<path id="I121" style="stroke:none;" d="M3.5 3.5 L5 4.5 L24.5 5 L44 4.5 L45.5 3.5 L44 9.5 L37.5 11 L24.5 11 L11.5 11 L5 9.5"/>
      	<path id="I131" style="stroke:none;" d="M3.5 3.5 L5 4.5 L25.5 5 L46 4.5 L47.5 3.5 L46 9.5 L38.5 11 L25.5 11 L12.5 11 L5 9.5"/>
      	
      	<path id="J111" style="stroke:none;" d="M12.5 0 L30 2.5 L39 2.5 L39 35.5 L30 35.5 L12.5 38 L9.5 33 L5 28 L1 23 L0 19 L1 15 L5 10 L9.5 5"/>
      	<path id="J112" style="stroke:none;" d="M57.5 0 L48 2.5 L39 2.5 L39 35.5 L48 35.5 L57.5 38 L60.5 33 L65 28 L69 23 L70 19 L69 15 L65 10 L60.5 5"/>
      	<path id="J121" style="stroke:none;" d="M12.5 0 L31 1.5 L40 1.5 L40 36.5 L31 36.5 L12.5 40 L9.5 33 L5 28 L1 23 L0 20 L1 15 L5 10 L9.5 5"/>
      	<path id="J122" style="stroke:none;" d="M61.5 0 L49 1.5 L40 1.5 L40 36.5 L49 36.5 L61.5 40 L64.5 33 L69 28 L73 23 L74 20 L73 15 L69 10 L64.5 5"/>
      	<path id="J131" style="stroke:none;" d="M12.5 0 L32 0.5 L41 0.5 L41 37.5 L30 37.5 L12.5 40 L9.5 33 L5 28 L1 23 L0 20 L1 15 L5 10 L9.5 5 L12.5 0"/>
      	<path id="J132" style="stroke:none;" d="M65.5 0 L50 0.5 L41 0.5 L41 37.5 L50 37.5 L65.5 40 L68.5 33 L73 28 L77 23 L78 20 L77 15 L73 10 L68.5 5 L65.5 0"/>
      	
      	<path id="K111" style="stroke:none;" d="M12.5 0 L56 10 L65 10 L65 28 L56 28 L12.5 38 L9.5 33 L5 28 L1 23 L0 19 L1 15 L5 10 L9.5 5"/>
      	<path id="K112" style="stroke:none;" d="M109.5 0 L74 10 L65 10 L65 28 L74 28 L109.5 38 L112.5 33 L117 28 L121 23 L122 19 L121 15 L117 10 L112.5 5"/>
      	<path id="K121" style="stroke:none;" d="M12.5 0 L58 9 L67 9 L67 29 L58 29 L12.5 40 L9.5 33 L5 28 L1 23 L0 20 L1 15 L5 10 L9.5 5"/>
      	<path id="K122" style="stroke:none;" d="M115.5 0 L76 9 L67 9 L67 29 L76 29 L115.5 40 L118.5 33 L123 28 L127 23 L128 20 L127 15 L123 10 L118.5 5"/>
      	<path id="K131" style="stroke:none;" d="M12.5 0 L60 8 L69 8 L69 30 L60 30 L12.5 42 L9.5 33 L5 28 L1 23 L0 20 L1 15 L5 10 L9.5 5"/>
      	<path id="K132" style="stroke:none;" d="M121.5 0 L78 8 L69 8 L69 30 L78 30 L121.5 42 L124.5 33 L129 28 L133 23 L134 20 L133 15 L129 10 L124.5 5"/>
      	
      	<path id="L111" style="stroke:none;" d="M12.5 0 L26 3 L26 35 L12.5 38 L9.5 33 L5 28 L1 23 L0 19 L1 15 L5 10 L9.5 5"/>
      	<path id="L112" style="stroke:none;" d="M39.5 0 L26 3 L26 35 L39.5 38 L42.5 33 L47 28 L51 23 L52 19 L51 15 L47 10 L42.5 5"/>
      	<path id="L121" style="stroke:none;" d="M12.5 0 L28 3 L28 37 L12.5 40 L9.5 33 L5 28 L1 23 L0 20 L1 15 L5 10 L9.5 5"/>
      	<path id="L122" style="stroke:none;" d="M43.5 0 L28 3 L28 37 L43.5 40 L46.5 33 L51 28 L55 23 L56 20 L55 15 L51 10 L46.5 5"/>
      	<path id="L131" style="stroke:none;" d="M12.5 0 L30 3.5 L30 38.5 L12.5 40 L9.5 33 L5 28 L1 23 L0 20 L1 15 L5 10 L9.5 5"/>
      	<path id="L132" style="stroke:none;" d="M47.5 0 L30 3.5 L30 38.5 L47.5 40 L50.5 33 L55 28 L59 23 L60 20 L59 15 L55 10 L50.5 5"/>
      	
      	<path id="M111" style="stroke:none;" d="M12.5 0 L52 10.5 L52 27.5 L12.5 38 L9.5 33 L5 28 L1 23 L0 19 L1 15 L5 10 L9.5 5"/>
      	<path id="M112" style="stroke:none;" d="M91.5 0 L52 10.5 L52 27.5 L91.5 38 L94.5 33 L99 28 L103 23 L104 19 L103 15 L99 10 L94.5 5"/>
      	<path id="M121" style="stroke:none;" d="M12.5 0 L55 10.5 L55 29.5 L12.5 40 L9.5 33 L5 28 L1 23 L0 20 L1 15 L5 10 L9.5 5"/>
      	<path id="M122" style="stroke:none;" d="M97.5 0 L55 10.5 L55 29.5 L97.5 40 L100.5 33 L105 28 L109 23 L110 20 L109 15 L105 10 L100.5 5"/>
      	<path id="M131" style="stroke:none;" d="M12.5 0 L58 10.5 L58 31.5 L12.5 40 L9.5 33 L5 28 L1 23 L0 20 L1 15 L5 10 L9.5 5"/>
      	<path id="M132" style="stroke:none;" d="M103.5 0 L58 10.5 L58 31.5 L103.5 40 L106.5 33 L111 28 L115 23 L116 20 L115 15 L111 10 L106.5 5"/>
    </g>
</g>
</svg>
